<svg width="33" height="19" viewBox="0 0 33 19" fill="none" xmlns="http://www.w3.org/2000/svg">
<path d="M9.66835 6.95752C9.66835 7.34037 9.70997 7.65079 9.78281 7.87843C9.86605 8.10607 9.9701 8.3544 10.1158 8.62343C10.1678 8.70621 10.1886 8.78898 10.1886 8.86141C10.1886 8.96489 10.1262 9.06836 9.99091 9.17183L9.33539 9.60642C9.24175 9.6685 9.1481 9.69954 9.06486 9.69954C8.96081 9.69954 8.85676 9.64781 8.75271 9.55468C8.60704 9.39947 8.48218 9.23392 8.37813 9.06836C8.27408 8.89246 8.17003 8.69586 8.05557 8.45787C7.24398 9.40982 6.22428 9.88579 4.99649 9.88579C4.12247 9.88579 3.42533 9.63746 2.91548 9.14079C2.40563 8.64412 2.14551 7.9819 2.14551 7.15412C2.14551 6.27461 2.45766 5.56065 3.09237 5.02259C3.72707 4.48453 4.56988 4.2155 5.6416 4.2155C5.99537 4.2155 6.35955 4.24655 6.74454 4.29828C7.12952 4.35002 7.52492 4.4328 7.94112 4.52592V3.77057C7.94112 2.98418 7.77464 2.43578 7.45208 2.11501C7.11912 1.79425 6.55725 1.63904 5.75606 1.63904C5.39188 1.63904 5.0173 1.68043 4.63231 1.77356C4.24733 1.86668 3.87274 1.9805 3.50857 2.12536C3.34209 2.19779 3.21723 2.23918 3.14439 2.25988C3.07156 2.28057 3.01953 2.29092 2.97791 2.29092C2.83224 2.29092 2.75941 2.18745 2.75941 1.97015V1.46314C2.75941 1.29758 2.78022 1.17342 2.83224 1.10098C2.88427 1.02855 2.97791 0.956124 3.12358 0.883693C3.48776 0.697443 3.92477 0.542234 4.43462 0.418067C4.94446 0.283553 5.48553 0.22147 6.0578 0.22147C7.296 0.22147 8.20124 0.500845 8.78393 1.0596C9.3562 1.61835 9.64754 2.46682 9.64754 3.60502V6.95752H9.66835ZM5.44391 8.5303C5.78727 8.5303 6.14104 8.46822 6.51563 8.34405C6.89021 8.21989 7.22317 7.99225 7.5041 7.68183C7.67059 7.48523 7.79545 7.26794 7.85788 7.01961C7.92031 6.77127 7.96193 6.4712 7.96193 6.1194V5.68481C7.66018 5.61238 7.33762 5.5503 7.00466 5.50891C6.6717 5.46752 6.34915 5.44683 6.02659 5.44683C5.32945 5.44683 4.8196 5.58134 4.47624 5.86072C4.13287 6.14009 3.96639 6.53329 3.96639 7.05065C3.96639 7.53697 4.09125 7.89912 4.35138 8.14746C4.6011 8.40614 4.96527 8.5303 5.44391 8.5303ZM13.7992 9.64781C13.6119 9.64781 13.487 9.61676 13.4038 9.54433C13.3205 9.48225 13.2477 9.33739 13.1853 9.14079L10.7401 1.14237C10.6776 0.935429 10.6464 0.800915 10.6464 0.728484C10.6464 0.562929 10.7297 0.469803 10.8961 0.469803H11.9158C12.1135 0.469803 12.2488 0.500845 12.3216 0.573276C12.4049 0.635359 12.4673 0.780221 12.5297 0.976818L14.2778 7.82669L15.901 0.976818C15.953 0.769873 16.0154 0.635359 16.0987 0.573276C16.1819 0.511192 16.3276 0.469803 16.5149 0.469803H17.3473C17.545 0.469803 17.6802 0.500845 17.7635 0.573276C17.8467 0.635359 17.9196 0.780221 17.9612 0.976818L19.6052 7.90947L21.4052 0.976818C21.4677 0.769873 21.5405 0.635359 21.6133 0.573276C21.6966 0.511192 21.8318 0.469803 22.0191 0.469803H22.9868C23.1533 0.469803 23.2469 0.552581 23.2469 0.728484C23.2469 0.780221 23.2365 0.831957 23.2261 0.89404C23.2157 0.956124 23.1949 1.0389 23.1533 1.15272L20.6457 9.15114C20.5832 9.35808 20.5104 9.4926 20.4272 9.55468C20.3439 9.61676 20.2087 9.65815 20.0318 9.65815H19.1369C18.9392 9.65815 18.804 9.62711 18.7207 9.55468C18.6375 9.48225 18.5647 9.34774 18.523 9.14079L16.9103 2.46682L15.3079 9.13044C15.2559 9.33739 15.1934 9.4719 15.1102 9.54433C15.027 9.61676 14.8813 9.64781 14.694 9.64781H13.7992ZM27.1696 9.92718C26.6286 9.92718 26.0875 9.8651 25.5673 9.74093C25.047 9.61676 24.6412 9.48225 24.3707 9.32704C24.2042 9.23392 24.0897 9.13044 24.0481 9.03732C24.0065 8.94419 23.9857 8.84072 23.9857 8.74759V8.21989C23.9857 8.00259 24.0689 7.89912 24.225 7.89912C24.2874 7.89912 24.3499 7.90947 24.4123 7.93016C24.4747 7.95086 24.5684 7.99225 24.6724 8.03364C25.0262 8.18884 25.4112 8.31301 25.817 8.39579C26.2332 8.47857 26.639 8.51996 27.0552 8.51996C27.7107 8.51996 28.2205 8.40614 28.5743 8.1785C28.9281 7.95086 29.1154 7.61975 29.1154 7.19551C29.1154 6.90579 29.0217 6.6678 28.8344 6.4712C28.6472 6.27461 28.2934 6.0987 27.7835 5.93315L26.2748 5.46752C25.5152 5.22953 24.9534 4.87773 24.61 4.4121C24.2666 3.95682 24.0897 3.44981 24.0897 2.91175C24.0897 2.47717 24.1834 2.09432 24.3707 1.76321C24.558 1.4321 24.8077 1.14237 25.1198 0.914735C25.432 0.676748 25.7858 0.500845 26.202 0.376678C26.6182 0.252511 27.0552 0.200775 27.513 0.200775C27.7419 0.200775 27.9812 0.211122 28.2101 0.242164C28.4495 0.273206 28.668 0.314595 28.8865 0.355984C29.0946 0.40772 29.2923 0.459456 29.4796 0.52154C29.6668 0.583623 29.8125 0.645706 29.9166 0.70779C30.0622 0.790568 30.1663 0.873346 30.2287 0.966471C30.2911 1.04925 30.3224 1.16307 30.3224 1.30793V1.79425C30.3224 2.01154 30.2391 2.12536 30.083 2.12536C29.9998 2.12536 29.8645 2.08397 29.6877 2.00119C29.0946 1.73217 28.4286 1.59765 27.6899 1.59765C27.0968 1.59765 26.6286 1.69078 26.306 1.88738C25.9835 2.08397 25.817 2.38404 25.817 2.80828C25.817 3.098 25.921 3.34634 26.1291 3.54293C26.3372 3.73953 26.7222 3.93613 27.2737 4.11203L28.7512 4.57766C29.5004 4.81564 30.0414 5.14676 30.364 5.57099C30.6865 5.99523 30.8426 6.48155 30.8426 7.01961C30.8426 7.46454 30.749 7.86808 30.5721 8.21989C30.3848 8.57169 30.1351 8.88211 29.8125 9.13044C29.49 9.38912 29.105 9.57537 28.6576 9.70989C28.1893 9.85475 27.7003 9.92718 27.1696 9.92718Z" fill="#C165A3"/>
<path fill-rule="evenodd" clip-rule="evenodd" d="M29.1363 14.9559C25.713 17.4703 20.7394 18.8051 16.4629 18.8051C10.4696 18.8051 5.06942 16.6011 0.990648 12.9382C0.668092 12.6485 0.959432 12.2553 1.34442 12.4829C5.75615 15.0284 11.198 16.5701 16.8271 16.5701C20.6249 16.5701 24.7974 15.7837 28.6368 14.1695C29.2091 13.9109 29.6981 14.542 29.1363 14.9559Z" fill="#C165A3"/>
<path fill-rule="evenodd" clip-rule="evenodd" d="M30.5617 13.3417C30.1247 12.783 27.6691 13.0727 26.5558 13.2072C26.2228 13.2486 26.1708 12.9589 26.4725 12.7416C28.4287 11.3758 31.6438 11.769 32.0184 12.2242C32.3929 12.6899 31.9143 15.8872 30.083 17.4185C29.8021 17.6565 29.5316 17.5324 29.6564 17.2219C30.0726 16.1976 30.9987 13.8901 30.5617 13.3417Z" fill="#C165A3"/>
</svg>
