<svg width="32" height="32" viewBox="0 0 32 32" fill="none" xmlns="http://www.w3.org/2000/svg">
<path d="M30.6949 14.1697L17.0356 0.586996C16.2495 -0.195279 14.9736 -0.195279 14.1865 0.586996L11.3501 3.40766L14.9482 6.9858C15.7843 6.70482 16.7432 6.89331 17.4097 7.55613C18.0794 8.22319 18.2676 9.18484 17.9782 10.019L21.4458 13.4675C22.2848 13.1801 23.2528 13.366 23.9228 14.0334C24.8593 14.9643 24.8593 16.4731 23.9228 17.4046C22.9861 18.3362 21.4689 18.3362 20.5317 17.4046C19.8273 16.7034 19.6533 15.6747 20.0099 14.8117L16.776 11.5958L16.7757 20.0587C17.0101 20.1739 17.2242 20.3262 17.4097 20.5095C18.3462 21.4404 18.3462 22.9493 17.4097 23.8816C16.473 24.8127 14.955 24.8127 14.0197 23.8816C13.0832 22.9493 13.0832 21.4406 14.0197 20.5097C14.2441 20.2864 14.5108 20.1095 14.8044 19.9894V11.4477C14.5104 11.3283 14.2435 11.1514 14.0197 10.9274C13.3101 10.2228 13.1395 9.18752 13.5031 8.32115L9.95618 4.79356L0.590258 14.1068C-0.196753 14.8898 -0.196753 16.1587 0.590258 16.9411L14.2498 30.524C15.0362 31.3064 16.3118 31.3064 17.0992 30.524L30.6948 17.0042C31.4815 16.2215 31.4815 14.9519 30.6948 14.1697" fill="#C165A3"/>
</svg>
