<svg width="33" height="32" viewBox="0 0 33 32" fill="none" xmlns="http://www.w3.org/2000/svg">
<path d="M28.847 6.10645C26.9559 3.67128 24.3812 1.84849 21.4483 0.868601C18.5155 -0.111287 15.3563 -0.204252 12.3703 0.601463C9.38431 1.40718 6.70566 3.07538 4.67312 5.39509C2.64058 7.7148 1.34545 10.5818 0.951532 13.6335C0.557611 16.6853 1.08259 19.7846 2.46008 22.5396C3.83756 25.2946 6.00568 27.5815 8.69022 29.1111C11.3748 30.6407 14.4551 31.3442 17.5418 31.1327C20.6284 30.9212 23.5827 29.8042 26.0309 27.9229C32.8646 22.671 34.1258 12.9047 28.8465 6.10645H28.847Z" fill="#C165A3"/>
<path d="M21.7422 9.97002L15.1466 16.5811L13.2827 14.6755C19.7742 8.22003 20.4258 8.80336 21.7427 9.97002H21.7422Z" fill="white"/>
<path d="M15.1467 16.7619C15.0883 16.7605 15.0326 16.7374 14.9903 16.6973L13.1132 14.8306C13.071 14.7871 13.0474 14.729 13.0474 14.6685C13.0474 14.608 13.071 14.5499 13.1132 14.5064C19.5134 8.14177 20.3869 8.43976 21.8989 9.80085C21.9242 9.821 21.9444 9.84673 21.958 9.87601C21.9716 9.90529 21.9781 9.93731 21.9771 9.96953C21.9868 10.0327 21.9624 10.0974 21.9121 10.1382L15.3164 16.6977C15.2701 16.7399 15.2095 16.763 15.1467 16.7624V16.7619ZM13.6084 14.675L15.1467 16.2048L21.4037 9.98266C21.1876 9.71342 20.8794 9.53284 20.5379 9.47544C20.1963 9.41804 19.8455 9.48786 19.5525 9.67155C18.4184 10.1771 16.5937 11.7195 13.6084 14.675Z" fill="#C165A3"/>
<path d="M17.0372 18.4088L15.2383 16.581L21.834 10.0993C23.607 11.8235 20.9737 14.7013 17.0372 18.4083V18.4088Z" fill="white"/>
<path d="M17.037 18.6422C16.9793 18.6376 16.9246 18.615 16.8806 18.5775L15.0426 16.7886C15.0151 16.7222 15.0151 16.6475 15.0426 16.5811C15.0231 16.5265 15.0231 16.4669 15.0426 16.4124L21.6383 9.85337C21.6842 9.81051 21.7448 9.78665 21.8077 9.78665C21.8707 9.78665 21.9312 9.81051 21.9771 9.85337C22.1907 10.0489 22.3594 10.2878 22.4719 10.554C22.5843 10.8201 22.6378 11.1072 22.6287 11.3958C22.6287 13.1458 20.6211 15.3493 17.2062 18.5644C17.1606 18.6093 17.1005 18.6368 17.0366 18.6422H17.037ZM15.5769 16.5811L17.0498 18.0452C19.6566 15.5952 22.1467 13.0675 22.1594 11.3564C22.1736 10.9937 22.053 10.6384 21.8207 10.3584L15.5769 16.5811Z" fill="#C165A3"/>
<path d="M13.3347 14.7144L14.6384 16.0109C14.6467 16.0182 14.6534 16.0271 14.6579 16.0372C14.6625 16.0473 14.6649 16.0582 14.6649 16.0692C14.6649 16.0802 14.6625 16.0911 14.6579 16.1012C14.6534 16.1113 14.6467 16.1202 14.6384 16.1275L11.8878 16.7109C11.8322 16.7228 11.7743 16.7163 11.7228 16.6925C11.6713 16.6686 11.6291 16.6287 11.6025 16.5788C11.576 16.5289 11.5665 16.4717 11.5757 16.4159C11.5848 16.3602 11.612 16.3089 11.6531 16.27L13.2565 14.6887C13.2565 14.6887 13.3088 14.6887 13.3347 14.7144Z" fill="white"/>
<path d="M11.8229 16.97C11.736 16.9689 11.6508 16.9457 11.5755 16.9025C11.5002 16.8594 11.4372 16.7977 11.3927 16.7235C11.3426 16.6295 11.3244 16.5219 11.3409 16.4167C11.3573 16.3116 11.4076 16.2146 11.4841 16.1402L13.0742 14.5458C13.1316 14.4948 13.2058 14.4666 13.2827 14.4666C13.3596 14.4666 13.4339 14.4948 13.4912 14.5458L14.7949 15.8422C14.8721 15.9151 14.9024 16.0255 14.8731 16.1276C14.8438 16.2296 14.7577 16.3108 14.6517 16.3351L11.9011 16.9184L11.8229 16.97ZM13.283 14.9998L11.8102 16.4644L14.2479 15.9458L13.283 14.9998Z" fill="#C165A3"/>
<path d="M25.2493 6.32714C24.3059 5.42201 22.8237 5.3841 21.8343 6.23819C20.8449 7.09228 20.6758 8.55837 21.4462 9.61323C22.2166 10.6681 23.6689 10.9636 24.7932 10.2938L23.0202 8.53067L25.2493 6.32714Z" fill="white"/>
<path d="M23.4893 10.8898C22.9473 10.8829 22.4193 10.7175 21.9711 10.4143C21.5229 10.111 21.1744 9.68334 20.9689 9.1845C20.7636 8.68604 20.7097 8.13866 20.814 7.61007C20.9183 7.08149 21.1761 6.59489 21.5555 6.2105C22.0774 5.70104 22.7795 5.41562 23.5108 5.41562C24.2421 5.41562 24.9442 5.70104 25.4661 6.2105C25.516 6.2523 25.5443 6.31404 25.5443 6.37918C25.5442 6.41122 25.5372 6.44287 25.5237 6.47197C25.5102 6.50108 25.4906 6.52695 25.4661 6.54785L23.3544 8.53117L24.9578 10.0998C24.9837 10.1245 25.0032 10.1551 25.0146 10.189C25.0259 10.2229 25.0287 10.2591 25.0228 10.2943C25.0189 10.3283 25.0076 10.361 24.9896 10.3901C24.9716 10.4193 24.9474 10.4442 24.9187 10.463C24.4879 10.7307 23.9927 10.8784 23.4849 10.8907L23.4893 10.8898ZM23.4893 5.86001C22.5606 5.86487 21.7295 6.42049 21.381 7.26972C21.0325 8.11896 21.2221 9.09652 21.8733 9.74887C22.1971 10.0728 22.6118 10.2919 23.063 10.3775C23.5142 10.4632 23.9809 10.4113 24.402 10.2287L22.8636 8.69888C22.8392 8.67944 22.8194 8.65477 22.8059 8.6267C22.7923 8.59864 22.7852 8.5679 22.7852 8.53677C22.7852 8.50563 22.7923 8.47489 22.8059 8.44682C22.8194 8.41876 22.8392 8.39409 22.8636 8.37465L24.8971 6.33931C24.4929 6.03123 23.9986 5.86278 23.4893 5.85953V5.86001Z" fill="#C165A3"/>
<path d="M25.2886 6.36603L23.0596 8.56954L24.8325 10.3326C25.0109 10.2308 25.1771 10.1089 25.3277 9.96953C25.7923 9.4811 26.048 8.83225 26.0407 8.15991C26.0334 7.48758 25.7637 6.84437 25.2886 6.36603Z" fill="white"/>
<path d="M24.7929 10.5271C24.7636 10.5287 24.7344 10.5237 24.7073 10.5125C24.6802 10.5013 24.656 10.4842 24.6365 10.4625L22.8635 8.69937C22.8391 8.67992 22.8193 8.65525 22.8058 8.62719C22.7922 8.59913 22.7852 8.56839 22.7852 8.53725C22.7852 8.50611 22.7922 8.47537 22.8058 8.44731C22.8193 8.41925 22.8391 8.39458 22.8635 8.37513L25.0794 6.21049C25.1008 6.17841 25.1298 6.15208 25.1639 6.13388C25.1981 6.11567 25.2362 6.10614 25.2749 6.10614C25.3136 6.10614 25.3517 6.11567 25.3859 6.13388C25.42 6.15208 25.449 6.17841 25.4704 6.21049C25.7306 6.46395 25.9372 6.76648 26.0783 7.10036C26.2194 7.43424 26.292 7.79276 26.292 8.15492C26.292 8.51709 26.2194 8.87561 26.0783 9.20949C25.9372 9.54337 25.7306 9.8459 25.4704 10.0994C25.317 10.2612 25.1414 10.4008 24.9489 10.514C24.9004 10.5383 24.8443 10.543 24.7924 10.5271H24.7929ZM23.3592 8.53117L24.832 9.99582C24.9333 9.9252 25.0292 9.84721 25.119 9.76248C25.5519 9.3331 25.7958 8.75036 25.797 8.14229C25.798 7.59811 25.5985 7.07241 25.2363 6.66452L23.3592 8.53117Z" fill="#C165A3"/>
<path d="M22.0163 10.2422C21.8397 10.0774 21.6066 9.9856 21.3644 9.9856C21.1223 9.9856 20.8892 10.0774 20.7126 10.2422L14.8081 16.1008L15.7858 17.0862L22.0295 11.6418C22.1247 11.551 22.2002 11.4418 22.2514 11.321C22.3026 11.2001 22.3284 11.0701 22.3272 10.9389C22.3259 10.8078 22.2977 10.6783 22.2442 10.5584C22.1908 10.4385 22.1132 10.3307 22.0163 10.2418V10.2422Z" fill="white"/>
<path d="M15.7332 17.32C15.6748 17.3185 15.619 17.2955 15.5767 17.2553L14.5859 16.27C14.5436 16.2265 14.52 16.1684 14.52 16.1079C14.52 16.0474 14.5436 15.9893 14.5859 15.9458L20.4909 10.0993C20.661 9.93041 20.8782 9.81619 21.1143 9.7715C21.3505 9.7268 21.5947 9.75369 21.8153 9.84868C22.0358 9.94366 22.2227 10.1024 22.3514 10.3042C22.4802 10.5061 22.5451 10.7417 22.5376 10.9807C22.5308 11.1428 22.4916 11.302 22.4222 11.4489C22.3527 11.5959 22.2545 11.7275 22.1333 11.8362L15.8896 17.2806C15.8442 17.3126 15.7884 17.3264 15.7332 17.3195V17.32ZM15.0425 16.1008L15.6941 16.7619L21.8205 11.46C21.972 11.3287 22.0624 11.1411 22.0683 10.9413C22.0742 10.7415 21.995 10.5461 21.8469 10.41C21.7101 10.2745 21.5249 10.1985 21.3319 10.1985C21.1389 10.1985 20.9537 10.2745 20.8169 10.41L15.0425 16.1008Z" fill="#C165A3"/>
<path d="M10.2327 22.777C10.2161 22.7996 10.2071 22.8268 10.2071 22.8548C10.2071 22.8828 10.2161 22.91 10.2327 22.9326L10.4933 24.0603C10.5037 24.1267 10.4938 24.1947 10.4649 24.2554C10.4359 24.316 10.3893 24.3667 10.331 24.4006C10.2729 24.4344 10.2056 24.449 10.1386 24.4422C10.0717 24.4355 10.0086 24.4078 9.95852 24.3632L8.17285 22.6521L13.7391 17.073H15.6684L16.9721 18.3695C14.9385 20.1377 12.671 21.6206 10.2327 22.777Z" fill="white"/>
<path d="M10.1154 24.6825C9.96775 24.6796 9.82208 24.6194 9.72431 24.5139L8.01685 22.8159C7.9924 22.7965 7.97266 22.7718 7.95909 22.7437C7.94552 22.7157 7.93848 22.6849 7.93848 22.6538C7.93848 22.6226 7.94552 22.5919 7.95909 22.5638C7.97266 22.5358 7.9924 22.5111 8.01685 22.4917L13.6217 16.9048C13.6531 16.8717 13.6941 16.8491 13.739 16.8402H15.6811C15.7317 16.8224 15.7869 16.8224 15.8375 16.8402L17.1412 18.1366C17.166 18.1594 17.1849 18.1877 17.1962 18.2193C17.2075 18.2509 17.211 18.2848 17.2062 18.318C17.2071 18.3502 17.2006 18.3821 17.187 18.4114C17.1734 18.4407 17.1532 18.4664 17.128 18.4866L17.0239 18.5775C14.982 20.2703 12.7356 21.7029 10.3368 22.8421L10.5846 23.8921C10.6038 23.9731 10.6045 24.0574 10.5868 24.1387C10.569 24.22 10.5333 24.2964 10.4821 24.3622C10.4309 24.428 10.3656 24.4816 10.2909 24.5191C10.2162 24.5566 10.134 24.5771 10.0504 24.579L10.1154 24.6825ZM8.52523 22.6472L10.0631 24.1896C10.0774 24.2023 10.0959 24.2094 10.1151 24.2094C10.1343 24.2094 10.1529 24.2023 10.1672 24.1896C10.1768 24.1764 10.1819 24.1605 10.1819 24.1442C10.1819 24.1279 10.1768 24.112 10.1672 24.0987L9.90664 22.971C9.88611 22.89 9.89436 22.8045 9.93 22.7289C9.96564 22.6534 10.0265 22.5924 10.1022 22.5563C12.4365 21.4323 14.625 20.0307 16.6196 18.3821L15.5506 17.319H13.804L8.52523 22.6472Z" fill="#C165A3"/>
<path d="M6.83034 23.9825L8.13403 22.6861L10.1416 24.6825L6.94815 24.4623C6.89332 24.458 6.84125 24.4367 6.79937 24.4012C6.75749 24.3658 6.72793 24.3181 6.71492 24.2649C6.70192 24.2118 6.70612 24.1559 6.72694 24.1053C6.74775 24.0547 6.78411 24.0119 6.83083 23.983L6.83034 23.9825Z" fill="white"/>
<path d="M10.1805 24.877L6.99973 24.6568C6.81104 24.6393 6.64876 24.511 6.58228 24.3394C6.5158 24.1678 6.55637 23.9641 6.68688 23.827L7.99057 22.5305C8.03432 22.4885 8.09277 22.465 8.15359 22.465C8.21442 22.465 8.27287 22.4885 8.31661 22.5305L10.311 24.5139C10.3386 24.5515 10.3535 24.5968 10.3535 24.6434C10.3535 24.69 10.3386 24.7354 10.311 24.773C10.2808 24.8215 10.2347 24.858 10.1805 24.8765V24.877ZM6.99973 24.1512L9.60661 24.3199L8.1729 22.9846L6.99973 24.1512Z" fill="#C165A3"/>
<path d="M15.8505 17.2295L13.2173 17.6315L14.7424 16.128L15.8505 17.2295Z" fill="white"/>
<path d="M13.2173 17.8771C13.1735 17.8782 13.1304 17.8665 13.0933 17.8434C13.0561 17.8203 13.0267 17.7869 13.0085 17.7473C12.9808 17.7097 12.9658 17.6643 12.9658 17.6177C12.9658 17.5711 12.9808 17.5257 13.0085 17.4882L14.5205 15.9715C14.5663 15.9286 14.6269 15.9048 14.6898 15.9048C14.7528 15.9048 14.8133 15.9286 14.8592 15.9715L15.9678 17.073C15.99 17.108 16.0017 17.1484 16.0017 17.1897C16.0017 17.231 15.99 17.2714 15.9678 17.3064C15.957 17.3489 15.934 17.3875 15.9017 17.4174C15.8693 17.4473 15.829 17.4673 15.7855 17.4751L13.1787 17.8771H13.2173ZM14.7424 16.4639L13.8953 17.3064L15.3554 17.0862L14.7424 16.4639Z" fill="#C165A3"/>
<path d="M15.8506 17.2286L14.0126 17.4619C13.9635 17.473 13.912 17.4681 13.8659 17.4478C13.8197 17.4275 13.7814 17.393 13.7565 17.3494C13.7317 17.3057 13.7216 17.2553 13.7279 17.2055C13.7341 17.1557 13.7563 17.1093 13.7912 17.0731L14.7429 16.1266L15.8506 17.2286Z" fill="white"/>
<path d="M13.9603 17.7089C13.8751 17.7081 13.7917 17.6848 13.7184 17.6415C13.6452 17.5983 13.5848 17.5364 13.5433 17.4624C13.4936 17.3737 13.4743 17.2712 13.4884 17.1706C13.5025 17.0699 13.5493 16.9766 13.6216 16.9048L14.5733 15.9584C14.6192 15.9155 14.6797 15.8917 14.7427 15.8917C14.8056 15.8917 14.8662 15.9155 14.9121 15.9584L16.0202 17.0604C16.0532 17.0915 16.0764 17.1313 16.087 17.1752C16.0976 17.2191 16.0952 17.2651 16.08 17.3077C16.0648 17.3503 16.0376 17.3875 16.0016 17.415C15.9655 17.4424 15.9222 17.4589 15.877 17.4624L14.0522 17.6957L13.9603 17.7089ZM13.9603 17.2291L15.3422 17.0604L14.7297 16.4513L13.9476 17.2291H13.9603ZM25.301 7.85692C25.2764 7.81601 25.2376 7.7855 25.192 7.77116C25.1463 7.75682 25.0969 7.75966 25.0532 7.77914C25.0316 7.79002 25.0124 7.80508 24.9968 7.82345C24.9812 7.84182 24.9694 7.86312 24.9622 7.88609C24.9477 7.93243 24.9523 7.9826 24.9749 8.0256C25.0664 8.21664 25.0409 8.44268 24.9099 8.60893C24.8937 8.62494 24.8809 8.64414 24.8725 8.66531C24.8641 8.68649 24.8602 8.70916 24.8611 8.73191C24.8615 8.7775 24.8789 8.82131 24.9099 8.8549C24.9434 8.86803 24.9806 8.86803 25.0141 8.8549C25.0444 8.86249 25.0763 8.86165 25.1062 8.85248C25.1361 8.84331 25.1629 8.82615 25.1837 8.80289C25.291 8.6722 25.359 8.51398 25.3798 8.3465C25.4005 8.17903 25.3732 8.00913 25.301 7.85643V7.85692Z" fill="#C165A3"/>
</svg>
