<svg width="32" height="32" viewBox="0 0 32 32" fill="none" xmlns="http://www.w3.org/2000/svg">
<path d="M0 0.0585022H31.1111V31.1696H0V0.0585022Z" fill="#C165A3"/>
<path d="M14.9381 11.5793H16.4305V14.1557H12.3957V25.6182L12.2888 25.6474C12.143 25.6863 10.2228 25.6863 9.80962 25.6425L9.47906 25.6134V14.1557H5.44434V11.5793L6.72281 11.5647C7.42281 11.555 9.22143 11.555 10.7187 11.5647C12.2159 11.5745 14.1117 11.5793 14.9381 11.5793ZM26.3277 24.4029C25.7346 25.03 25.0978 25.38 24.0381 25.6668C23.5763 25.7932 23.4985 25.7981 22.4583 25.7932C21.418 25.7884 21.3353 25.7883 20.8298 25.6571C19.5221 25.3217 18.4673 24.6654 17.7478 23.737C17.5437 23.4745 17.2082 22.93 17.2082 22.862C17.2082 22.8425 17.2569 22.7988 17.3201 22.7696C17.3832 22.7404 17.5145 22.6578 17.6214 22.5946C17.7284 22.5314 17.9228 22.4147 18.0541 22.3467C18.1853 22.2786 18.5645 22.055 18.8951 21.8557C19.2256 21.6564 19.527 21.496 19.561 21.496C19.5951 21.496 19.6582 21.564 19.7069 21.6467C19.9985 22.1377 20.6791 22.7647 21.1603 22.9786C21.4569 23.105 22.1131 23.246 22.4291 23.246C22.7208 23.246 23.2555 23.1196 23.5423 22.9884C23.8485 22.8474 24.0041 22.7064 24.1888 22.4245C24.3152 22.2252 24.3298 22.1717 24.3249 21.7925C24.3249 21.4425 24.3055 21.3453 24.2083 21.1849C23.936 20.7377 23.5666 20.5043 22.0694 19.8432C20.5235 19.1578 19.8284 18.7495 19.2645 18.2002C18.8464 17.7918 18.7638 17.68 18.5013 17.1696C18.161 16.5134 18.1173 16.2995 18.1124 15.3224C18.1076 14.637 18.1221 14.4134 18.1951 14.18C18.2971 13.83 18.6277 13.1543 18.7784 12.9842C19.0895 12.6196 19.2013 12.5078 19.4201 12.3279C20.0812 11.7835 21.1117 11.4238 22.0985 11.3897C22.2103 11.3897 22.5798 11.4092 22.9249 11.4335C23.9166 11.5161 24.5923 11.7592 25.2437 12.2793C25.7346 12.6682 26.4784 13.5821 26.4055 13.7036C26.3569 13.7765 24.4173 15.0696 24.2909 15.1085C24.2131 15.1328 24.1596 15.1036 24.0527 14.9772C23.3916 14.1849 23.1242 14.0147 22.4826 13.9759C22.0256 13.9467 21.7826 14.0002 21.4763 14.2043C21.1555 14.4182 20.9999 14.7439 20.9999 15.196C21.0048 15.8571 21.2576 16.1682 22.1909 16.63C22.7937 16.9265 23.3089 17.1696 23.3478 17.1696C23.4062 17.1696 24.6555 17.7918 24.9812 17.9863C26.4978 18.8758 27.1152 19.7897 27.2756 21.3647C27.3923 22.5508 27.0569 23.6349 26.3277 24.4029Z" fill="#1E1E1E"/>
</svg>
