<svg width="31" height="32" viewBox="0 0 31 32" fill="none" xmlns="http://www.w3.org/2000/svg">
<path d="M30.723 4.66326L16.2954 30.7635C15.9975 31.3024 15.2322 31.3056 14.9299 30.7694L0.216267 4.66569C-0.113182 4.08139 0.380751 3.37353 1.03533 3.49199L15.4784 6.10362C15.5705 6.12028 15.6649 6.12011 15.757 6.10313L29.8979 3.49563C30.5503 3.37535 31.0466 4.07775 30.723 4.66326Z" fill="url(#paint0_linear_57_109)"/>
<path d="M22.3582 0.066162L11.6814 2.18271C11.5961 2.19961 11.5188 2.24472 11.4616 2.31094C11.4044 2.37717 11.3706 2.46074 11.3654 2.54853L10.7087 13.7704C10.7051 13.832 10.7157 13.8935 10.7397 13.9502C10.7637 14.0069 10.8005 14.0571 10.847 14.0969C10.8935 14.1367 10.9486 14.1649 11.0079 14.1794C11.0671 14.194 11.1289 14.1943 11.1882 14.1804L14.1608 13.4864C14.4389 13.4215 14.6903 13.6693 14.633 13.9522L13.7499 18.3275C13.6905 18.6219 13.9637 18.8736 14.2479 18.7863L16.084 18.222C16.3686 18.1346 16.6421 18.3871 16.5819 18.6817L15.1784 25.5541C15.0906 25.9841 15.6558 26.2184 15.8915 25.8499L16.049 25.6038L24.749 8.03834C24.8948 7.74425 24.6434 7.40889 24.3243 7.47128L21.2644 8.06869C20.9769 8.12476 20.7323 7.85385 20.8134 7.56935L22.8105 0.565379C22.8917 0.280147 22.6461 0.00911554 22.3583 0.066162H22.3582Z" fill="url(#paint1_linear_57_109)"/>
<defs>
<linearGradient id="paint0_linear_57_109" x1="-0.142978" y1="5.59778" x2="15.6522" y2="26.8013" gradientUnits="userSpaceOnUse">
<stop stop-color="#C165A3"/>
<stop offset="1" stop-color="#6F3958"/>
</linearGradient>
<linearGradient id="paint1_linear_57_109" x1="16.8168" y1="0.640846" x2="20.0915" y2="22.8446" gradientUnits="userSpaceOnUse">
<stop stop-color="white"/>
<stop offset="0.083" stop-color="white"/>
<stop offset="1" stop-color="#EAD2E2"/>
</linearGradient>
</defs>
</svg>
