<svg width="29" height="32" viewBox="0 0 29 32" fill="none" xmlns="http://www.w3.org/2000/svg">
<path d="M28.1529 0L25.6538 27.9967L14.42 31.1111L3.2172 28.0011L0.720703 0H28.1529Z" fill="#88476F"/>
<path d="M23.5144 26.214L25.6501 2.28951H14.437V28.7306L23.5144 26.214Z" fill="#C165A3"/>
<path d="M6.44385 12.6747L6.75165 16.1089H14.4368V12.6747H6.44385Z" fill="#EBEBEB"/>
<path d="M14.4366 5.72373H14.4247H5.8252L6.13738 9.15799H14.4366V5.72373Z" fill="#EBEBEB"/>
<path d="M14.437 25.1667V21.5937L14.4219 21.5977L10.5972 20.5649L10.3527 17.826H8.49418H6.90527L7.38641 23.2182L14.4212 25.1711L14.437 25.1667Z" fill="#EBEBEB"/>
<path d="M18.6537 16.1089L18.255 20.5628L14.4248 21.5966V25.1695L21.4652 23.2183L21.5168 22.6381L22.3238 13.5969L22.4076 12.6747L23.0276 5.72373H14.4248V9.15799H19.264L18.9515 12.6747H14.4248V16.1089H18.6537Z" fill="white"/>
</svg>
