<svg width="32" height="23" viewBox="0 0 32 23" fill="none" xmlns="http://www.w3.org/2000/svg">
<path d="M30.8043 8.76807C30.7199 8.70107 29.9322 8.10631 28.2711 8.10631C27.8325 8.10823 27.3948 8.14584 26.9622 8.21882C26.6407 6.01517 24.8188 4.94078 24.7372 4.89258L24.2911 4.63535L23.9977 5.05868C23.6303 5.62736 23.3621 6.25425 23.2047 6.9127C22.9073 8.17062 23.0881 9.35212 23.7271 10.3622C22.9555 10.7922 21.7177 10.8981 21.4672 10.9074H0.97386C0.438579 10.9082 0.00422411 11.3407 0.00130693 11.876C-0.0225965 13.6713 0.281574 15.4559 0.89884 17.1419C1.6048 18.9933 2.65507 20.357 4.02148 21.1916C5.55266 22.1293 8.04031 22.6652 10.8602 22.6652C12.1341 22.6692 13.4056 22.5539 14.658 22.3209C16.399 22.0012 18.0743 21.3927 19.6145 20.5204C20.8837 19.7855 22.0259 18.8505 22.9971 17.7515C24.6207 15.9135 25.5879 13.8666 26.3073 12.0474H26.5939C28.3716 12.0474 29.4647 11.3361 30.0675 10.74C30.4682 10.3598 30.7809 9.89663 30.9838 9.38295L31.1111 9.01055L30.8043 8.76807Z" fill="#C165A3"/>
<path d="M2.87356 10.3073H5.61976C5.75221 10.3073 5.85954 10.1999 5.85954 10.0675V7.62137C5.86028 7.48892 5.75352 7.38099 5.62111 7.38025C5.62068 7.38025 5.6202 7.38025 5.61976 7.38025H2.87356C2.74112 7.38025 2.63379 7.48762 2.63379 7.62002V7.62137V10.0675C2.63379 10.1999 2.74112 10.3073 2.87356 10.3073Z" fill="#C165A3"/>
<path d="M6.65767 10.3073H9.40387C9.53632 10.3073 9.64364 10.1999 9.64364 10.0675V7.62137C9.64439 7.48892 9.53763 7.38099 9.40518 7.38025C9.40474 7.38025 9.40426 7.38025 9.40383 7.38025H6.65763C6.52444 7.38025 6.4165 7.48818 6.4165 7.62137V10.0675C6.41729 10.2002 6.52501 10.3073 6.65767 10.3073Z" fill="#C165A3"/>
<path d="M10.4996 10.3073H13.2458C13.3782 10.3073 13.4856 10.1999 13.4856 10.0675V7.62137C13.4863 7.48892 13.3795 7.38099 13.2471 7.38025C13.2467 7.38025 13.2462 7.38025 13.2457 7.38025H10.4995C10.3671 7.38025 10.2598 7.48762 10.2598 7.62002V7.62137V10.0675C10.2598 10.1999 10.3672 10.3073 10.4996 10.3073Z" fill="#C165A3"/>
<path d="M14.2964 10.3073H17.0426C17.1753 10.3073 17.283 10.2002 17.2837 10.0675V7.62137C17.2837 7.48818 17.1758 7.38025 17.0426 7.38025H14.2964C14.164 7.38025 14.0566 7.48762 14.0566 7.62002V7.62137V10.0675C14.0566 10.1999 14.164 10.3073 14.2964 10.3073Z" fill="#C165A3"/>
<path d="M6.65763 6.78816H9.40383C9.53645 6.78742 9.6436 6.67966 9.6436 6.54704V4.10092C9.6436 3.96847 9.53623 3.86115 9.40383 3.86115H6.65763C6.52501 3.86115 6.41724 3.96825 6.4165 4.10092V6.54704C6.41724 6.67992 6.52474 6.78742 6.65763 6.78816Z" fill="#C165A3"/>
<path d="M10.5 6.78816H13.2462C13.3789 6.78742 13.486 6.67966 13.486 6.54704V4.10092C13.486 3.96847 13.3786 3.86115 13.2462 3.86115H10.5C10.3676 3.86115 10.2603 3.96851 10.2603 4.10092V6.54704C10.2603 6.67966 10.3674 6.78742 10.5 6.78816Z" fill="#C165A3"/>
<path d="M14.2964 6.78816H17.0426C17.1755 6.78742 17.283 6.67992 17.2837 6.54704V4.10092C17.283 3.96825 17.1753 3.86115 17.0426 3.86115H14.2964C14.164 3.86115 14.0566 3.96851 14.0566 4.10092V6.54704C14.0566 6.67966 14.1638 6.78742 14.2964 6.78816Z" fill="#C165A3"/>
<path d="M14.2964 3.2677H17.0426C17.1753 3.2677 17.283 3.16055 17.2837 3.02793V0.580412C17.283 0.447746 17.1753 0.340637 17.0426 0.340637H14.2964C14.164 0.340637 14.0566 0.447963 14.0566 0.580412V3.02788C14.0566 3.16033 14.164 3.2677 14.2964 3.2677Z" fill="#C165A3"/>
<path d="M18.126 10.3073H20.8722C21.0049 10.3073 21.1126 10.2002 21.1133 10.0675V7.62137C21.1133 7.48818 21.0054 7.38025 20.8722 7.38025H18.126C17.9936 7.38025 17.8862 7.48762 17.8862 7.62002V7.62137V10.0675C17.8862 10.1999 17.9936 10.3073 18.126 10.3073Z" fill="#C165A3"/>
</svg>
