<svg width="21" height="33" viewBox="0 0 21 33" fill="none" xmlns="http://www.w3.org/2000/svg">
<path d="M5.29651 32.0585C8.15874 32.0585 10.4817 29.7355 10.4817 26.8733V21.6881H5.29651C2.43429 21.6881 0.111328 24.0111 0.111328 26.8733C0.111328 29.7355 2.43429 32.0585 5.29651 32.0585Z" fill="#BF6BA3"/>
<path d="M0.111328 16.5029C0.111328 13.6407 2.43429 11.3177 5.29651 11.3177H10.4817V21.6881H5.29651C2.43429 21.6881 0.111328 19.3651 0.111328 16.5029Z" fill="#9B427E"/>
<path d="M0.111328 6.13257C0.111328 3.27035 2.43429 0.947388 5.29651 0.947388H10.4817V11.3178H5.29651C2.43429 11.3178 0.111328 8.99479 0.111328 6.13257Z" fill="#C165A3"/>
<path d="M10.4819 0.947388H15.6671C18.5294 0.947388 20.8523 3.27035 20.8523 6.13257C20.8523 8.99479 18.5294 11.3178 15.6671 11.3178H10.4819V0.947388Z" fill="#DEADCE"/>
<path d="M20.8523 16.5029C20.8523 19.3651 18.5294 21.6881 15.6671 21.6881C12.8049 21.6881 10.4819 19.3651 10.4819 16.5029C10.4819 13.6407 12.8049 11.3177 15.6671 11.3177C18.5294 11.3177 20.8523 13.6407 20.8523 16.5029Z" fill="#FDBFE9"/>
</svg>
