<svg width="32" height="32" viewBox="0 0 32 32" fill="none" xmlns="http://www.w3.org/2000/svg">
<path d="M0 0.797913H31.2849V31.2609H0V0.797913Z" fill="#C165A3"/>
<path d="M11.4124 16.3061H14.1855L12.799 10.9588L11.4124 16.3061ZM2.3667 3.1832V28.8905H28.9575V3.1832H2.3667ZM15.7073 22.1691L14.6928 18.6939H10.9389L9.92431 22.1691H7.3541L10.9727 9.88262V8.5374H14.4222L18.5481 22.1691H15.7073ZM22.5388 22.1691H19.7657V11.7996H22.5388V22.1691ZM21.1691 10.5553C20.3753 10.5553 19.7317 9.92287 19.7317 9.14282C19.7317 8.36271 20.3751 7.73028 21.1691 7.73028C21.963 7.73028 22.6064 8.36271 22.6064 9.14282C22.6064 9.92287 21.9629 10.5553 21.1691 10.5553Z" fill="url(#paint0_linear_55_74)"/>
<defs>
<linearGradient id="paint0_linear_55_74" x1="15.6621" y1="3.14003" x2="15.6621" y2="28.7608" gradientUnits="userSpaceOnUse">
<stop stop-color="#371C26"/>
<stop offset="1" stop-color="#2B161B"/>
</linearGradient>
</defs>
</svg>
