<svg width="32" height="32" viewBox="0 0 32 32" fill="none" xmlns="http://www.w3.org/2000/svg">
<path d="M31.5701 0.473846H0.285156V31.585H31.5701V0.473846Z" fill="#C165A3"/>
<path d="M21.3006 24.7795C21.9308 25.8027 22.7506 26.5548 24.2007 26.5548C25.4188 26.5548 26.1969 25.9494 26.1969 25.1129C26.1969 24.1104 25.3974 23.7553 24.0567 23.1721L23.3217 22.8585C21.2003 21.9598 19.791 20.8338 19.791 18.4536C19.791 16.261 21.4709 14.5919 24.0964 14.5919C25.9655 14.5919 27.3093 15.2388 28.2776 16.9326L25.9884 18.3943C25.4843 17.4956 24.9406 17.1415 24.0964 17.1415C23.2353 17.1415 22.6896 17.6847 22.6896 18.3943C22.6896 19.2714 23.2358 19.6264 24.4971 20.1697L25.2321 20.4827C27.7299 21.5479 29.1402 22.6338 29.1402 25.0753C29.1402 27.7074 27.061 29.1494 24.2687 29.1494C21.5385 29.1494 19.7746 27.8556 18.9115 26.1598L21.3006 24.7795ZM10.9155 25.0329C11.3773 25.8477 11.7974 26.5366 12.8075 26.5366C13.7734 26.5366 14.3827 26.1608 14.3827 24.6995V14.7588H17.3225V24.739C17.3225 27.7662 15.5377 29.144 12.9326 29.144C10.5788 29.144 9.2157 27.9326 8.52246 26.4736L10.9155 25.0329Z" fill="#1E1E1E"/>
</svg>
