<svg width="32" height="32" viewBox="0 0 32 32" fill="none" xmlns="http://www.w3.org/2000/svg">
<path d="M29.1018 24.9239C27.3997 24.881 26.0804 25.0529 24.974 25.5253C24.6548 25.6541 24.144 25.6542 24.1015 26.0623C24.2717 26.2342 24.293 26.5135 24.442 26.7496C24.6976 27.1791 25.1441 27.7591 25.5484 28.06C25.9952 28.4035 26.4422 28.7471 26.9101 29.0478C27.74 29.5634 28.6763 29.864 29.4849 30.3795C29.9531 30.68 30.4209 31.0669 30.8891 31.389C31.1232 31.5606 31.272 31.8401 31.5701 31.9474V31.8831C31.421 31.6896 31.3784 31.4105 31.2296 31.1957C31.017 30.9809 30.804 30.7875 30.5912 30.5727C29.9742 29.7352 29.2082 29.0049 28.3784 28.4035C27.6976 27.9309 26.208 27.2866 25.9315 26.4918C25.9315 26.4918 25.91 26.4705 25.8889 26.449C26.3569 26.406 26.9101 26.2342 27.3571 26.1053C28.0805 25.9119 28.7401 25.9549 29.4849 25.7616C29.8252 25.6757 30.1657 25.5683 30.5061 25.4609V25.2677C30.1233 24.881 29.8466 24.3656 29.4423 24.0004C28.3571 23.0551 27.1655 22.1317 25.9315 21.3585C25.2718 20.9289 24.4206 20.6496 23.7184 20.2846C23.4633 20.1556 23.0376 20.0913 22.8888 19.8765C22.5056 19.404 22.2928 18.7812 22.0163 18.2227C21.3994 17.0412 20.8034 15.7311 20.2714 14.4855C19.8886 13.6477 19.6545 12.81 19.1864 12.0369C16.9948 8.38551 14.6116 6.17322 10.952 4.00376C10.1646 3.55279 9.22839 3.35946 8.22835 3.12329C7.69659 3.10169 7.16446 3.05885 6.63258 3.03725C6.2921 2.88688 5.95162 2.47886 5.6537 2.28554C4.4411 1.51222 1.31304 -0.162922 0.419396 2.04937C-0.155167 3.44538 1.2706 4.81992 1.7598 5.52891C2.12181 6.02285 2.58972 6.58123 2.84509 7.13974C2.99405 7.50466 3.03648 7.89157 3.18545 8.2781C3.52605 9.22289 3.84501 10.2756 4.29201 11.1563C4.52609 11.6073 4.78133 12.0797 5.07925 12.4879C5.2495 12.724 5.5473 12.8316 5.61126 13.2181C5.31346 13.6477 5.29206 14.2921 5.12169 14.8291C4.35573 17.2561 4.65377 20.2631 5.73882 22.0458C6.07918 22.5826 6.88782 23.7643 7.97298 23.313C8.93059 22.9265 8.71779 21.7022 8.99419 20.6283C9.05827 20.3703 9.01571 20.1987 9.14327 20.0268V20.0699C9.44119 20.6711 9.73899 21.2512 10.0156 21.8526C10.6753 22.9049 11.8242 24.0004 12.7817 24.7308C13.2925 25.1172 13.6967 25.7831 14.3351 26.0194V25.9548H14.2924C14.1648 25.7615 13.9732 25.6757 13.8031 25.5252C13.4202 25.1388 12.9945 24.6662 12.6967 24.2366C11.8032 23.0337 11.0157 21.7021 10.3136 20.3274C9.97319 19.6618 9.67515 18.9314 9.39863 18.2656C9.27083 18.0076 9.27083 17.6212 9.05815 17.4924C8.73895 17.9649 8.27091 18.373 8.03682 18.9529C7.63275 19.8765 7.59006 21.0148 7.4411 22.196C7.35598 22.2178 7.39842 22.196 7.35586 22.2392C6.67514 22.0671 6.44106 21.3585 6.18558 20.7571C5.54717 19.2322 5.44077 16.7836 5.99418 15.0224C6.14314 14.5713 6.78154 13.1538 6.52618 12.7242C6.3985 12.316 5.97277 12.0797 5.73882 11.7576C5.4623 11.3495 5.16425 10.8342 4.97285 10.383C4.46213 9.18018 4.20677 7.84848 3.65361 6.64567C3.39825 6.08717 2.95161 5.50743 2.58972 4.99189C2.18552 4.41203 1.73864 4.00376 1.41944 3.3165C1.31316 3.08033 1.16408 2.69367 1.33432 2.4359C1.37688 2.26405 1.46188 2.19974 1.63224 2.15677C1.90888 1.92036 2.69625 2.22109 2.97264 2.34998C3.76001 2.67195 4.41957 2.97293 5.07925 3.4239C5.37705 3.63871 5.69626 4.04685 6.07918 4.15425H6.52606C7.20702 4.3045 7.97286 4.19722 8.61127 4.39042C9.73911 4.75547 10.7603 5.2925 11.6754 5.87248C14.4628 7.65515 16.7606 10.1897 18.314 13.2181C18.5694 13.7119 18.6757 14.1633 18.9097 14.6786C19.3568 15.7311 19.9099 16.805 20.3565 17.836C20.8034 18.8454 21.2289 19.8765 21.8673 20.7142C22.1865 21.1651 23.4631 21.4015 24.0376 21.6378C24.4632 21.831 25.1229 22.0029 25.5058 22.2391C26.2292 22.69 26.9527 23.2058 27.6336 23.6996C27.9741 23.9573 29.0379 24.4944 29.1018 24.9239Z" fill="#C165A3"/>
<path d="M7.39812 6.2589C7.03648 6.2589 6.78124 6.3021 6.52588 6.36642V6.40939H6.56844C6.7388 6.75308 7.03648 6.98937 7.24916 7.28998C7.41952 7.63355 7.56836 7.97737 7.73872 8.32107C7.75988 8.29946 7.78116 8.2781 7.78116 8.2781C8.0792 8.06317 8.22804 7.7196 8.22804 7.20406C8.10036 7.05381 8.07908 6.90345 7.97268 6.75308C7.84512 6.53815 7.56836 6.43087 7.39812 6.2589Z" fill="#C165A3"/>
</svg>
