<svg width="32" height="31" viewBox="0 0 32 31" fill="none" xmlns="http://www.w3.org/2000/svg">
<path d="M0 0.151245H31.2849V30.7438H0V0.151245Z" fill="#C165A3"/>
<path d="M2.48828 2.58411H28.7972V28.3111H2.48828V2.58411Z" fill="url(#paint0_linear_55_78)"/>
<path d="M2.48828 2.58411H28.7972V28.3111H2.48828V2.58411Z" fill="url(#paint1_linear_55_78)"/>
<path d="M7.56016 8.77361C7.56016 8.77361 9.5382 8.72186 11.1665 8.72186C12.8119 8.72186 13.985 9.10681 14.7727 9.78327C15.5255 10.4225 16.0332 11.5122 16.0332 12.7527C16.0332 13.9932 15.6479 15.0083 14.9476 15.722C14.0373 16.643 12.9765 17.1881 11.1665 17.2635C10.6664 17.2844 10.2036 17.2893 10.2036 17.2893V21.3218H7.56006L7.56016 8.77361ZM10.2035 15.0553C10.4907 15.083 10.6707 15.0697 11.0964 15.0646C12.5144 15.0477 13.3895 14.1902 13.3895 12.8933C13.3895 11.7283 12.6679 10.7718 11.3066 10.7222C10.7641 10.7025 10.2035 10.7222 10.2035 10.7222V15.0553Z" fill="#C165A3"/>
<path d="M17.0419 18.5126C17.5747 18.8377 18.8319 19.3246 19.6889 19.3246C20.5645 19.3246 20.926 19.0177 20.926 18.5393C20.926 18.0603 20.6405 17.5571 19.5552 17.1933C17.6324 16.5422 16.8898 15.7628 16.9091 14.6718C16.9091 12.9098 18.3938 11.5886 20.6975 11.5886C21.7826 11.5886 22.6495 11.9414 23.2202 12.2284V14.3432C22.8009 14.1131 21.5922 13.5996 20.7928 13.5996C20.0879 13.5996 19.6884 13.8869 19.6884 14.3651C19.6884 14.8057 20.0504 15.0355 21.1926 15.4379C22.9628 16.0505 23.7054 16.9503 23.7242 18.329C23.7242 20.0717 22.3733 21.4575 19.6884 21.3734C18.767 21.3446 17.7461 20.9824 17.0417 20.5999L17.0419 18.5126Z" fill="url(#paint2_linear_55_78)"/>
<defs>
<linearGradient id="paint0_linear_55_78" x1="11.8598" y1="2.94665" x2="18.5692" y2="25.3675" gradientUnits="userSpaceOnUse">
<stop stop-color="#2B161B"/>
<stop offset="1" stop-color="#371C26"/>
</linearGradient>
<linearGradient id="paint1_linear_55_78" x1="11.8598" y1="2.94665" x2="18.5692" y2="25.3675" gradientUnits="userSpaceOnUse">
<stop stop-color="#2B161B"/>
<stop offset="1" stop-color="#371C26"/>
</linearGradient>
<linearGradient id="paint2_linear_55_78" x1="10.7035" y1="-3.39588" x2="22.6343" y2="21.9552" gradientUnits="userSpaceOnUse">
<stop stop-color="#BD63A0"/>
<stop offset="0.394" stop-color="#C165A3"/>
<stop offset="0.583" stop-color="#C165A3"/>
<stop offset="0.784" stop-color="#C165A3"/>
<stop offset="1" stop-color="#C165A3"/>
</linearGradient>
</defs>
</svg>
