<svg width="33" height="34" viewBox="0 0 33 34" fill="none" xmlns="http://www.w3.org/2000/svg">
<path d="M16.3695 19.7722C17.8928 19.7722 19.1276 18.5442 19.1276 17.0294C19.1276 15.5146 17.8928 14.2866 16.3695 14.2866C14.8462 14.2866 13.6113 15.5146 13.6113 17.0294C13.6113 18.5442 14.8462 19.7722 16.3695 19.7722Z" fill="#C165A3"/>
<path fill-rule="evenodd" clip-rule="evenodd" d="M3.40089 15.5862C2.77541 16.1477 2.56982 16.6373 2.56982 17.0294C2.56982 17.4216 2.77541 17.9111 3.40089 18.4726C4.02594 19.0337 4.98684 19.5848 6.25957 20.0681C8.79798 21.0319 12.3722 21.6489 16.3697 21.6489C20.3671 21.6489 23.9413 21.0319 26.4798 20.0681C27.7525 19.5848 28.7134 19.0337 29.3384 18.4726C29.9639 17.9111 30.1695 17.4216 30.1695 17.0294C30.1695 16.6373 29.9639 16.1477 29.3384 15.5862C28.7134 15.0251 27.7525 14.474 26.4798 13.9907C23.9413 13.0269 20.3671 12.41 16.3697 12.41C12.3722 12.41 8.79798 13.0269 6.25957 13.9907C4.98684 14.474 4.02594 15.0251 3.40089 15.5862ZM5.54963 12.121C8.3677 11.051 12.1934 10.41 16.3697 10.41C20.5459 10.41 24.3716 11.051 27.1897 12.121C28.5952 12.6547 29.8017 13.3144 30.6745 14.0979C31.5468 14.881 32.1695 15.8698 32.1695 17.0294C32.1695 18.189 31.5468 19.1778 30.6745 19.9609C29.8017 20.7444 28.5952 21.4042 27.1897 21.9378C24.3716 23.0079 20.5459 23.6489 16.3697 23.6489C12.1934 23.6489 8.3677 23.0079 5.54963 21.9378C4.14411 21.4042 2.93762 20.7444 2.06485 19.9609C1.1925 19.1778 0.569824 18.189 0.569824 17.0294C0.569824 15.8698 1.1925 14.881 2.06485 14.0979C2.93762 13.3144 4.14411 12.6547 5.54963 12.121Z" fill="#C165A3"/>
<path fill-rule="evenodd" clip-rule="evenodd" d="M11.15 5.14104C10.3493 4.88345 9.81745 4.94987 9.47169 5.14838C9.12593 5.3469 8.80215 5.77175 8.62613 6.59012C8.4501 7.40856 8.45061 8.51089 8.66599 9.84775C9.09559 12.5143 10.3448 15.8996 12.343 19.3412C14.3411 22.7829 16.6646 25.5514 18.772 27.2546C19.8285 28.1085 20.7882 28.6601 21.589 28.9177C22.3897 29.1753 22.9216 29.1089 23.2673 28.9104C23.6131 28.7119 23.9369 28.287 24.1129 27.4687C24.2889 26.6502 24.2884 25.5479 24.0731 24.211C23.6434 21.5445 22.3942 18.1592 20.3961 14.7176C18.3979 11.2759 16.0744 8.50744 13.9671 6.80418C12.9105 5.95027 11.9508 5.39866 11.15 5.14104ZM15.2278 5.25573C17.5698 7.14864 20.0418 10.1241 22.1305 13.7218C24.2192 17.3194 25.5745 20.9361 26.0519 23.8995C26.29 25.3777 26.3187 26.7474 26.0727 27.8912C25.8266 29.035 25.2771 30.0627 24.2715 30.64C23.2659 31.2174 22.0962 31.1768 20.9771 30.8168C19.8579 30.4567 18.6795 29.7472 17.5113 28.8031C15.1692 26.9101 12.6972 23.9347 10.6085 20.337C8.5198 16.7394 7.16458 13.1227 6.68714 10.1593C6.449 8.68113 6.42034 7.31144 6.66636 6.16762C6.91239 5.02375 7.46189 3.99612 8.46751 3.41875C9.47313 2.84138 10.6428 2.88196 11.762 3.24201C12.8811 3.60204 14.0596 4.31157 15.2278 5.25573Z" fill="#C165A3"/>
<path fill-rule="evenodd" clip-rule="evenodd" d="M24.1131 6.59012C23.9371 5.77175 23.6133 5.3469 23.2675 5.14839C22.9218 4.94987 22.3899 4.88345 21.5892 5.14105C20.7884 5.39866 19.8287 5.95027 18.7722 6.80419C16.6648 8.50744 14.3413 11.2759 12.3432 14.7176C10.345 18.1592 9.09578 21.5445 8.66617 24.211C8.45079 25.5479 8.45028 26.6502 8.62631 27.4687C8.80233 28.287 9.12612 28.7119 9.47188 28.9104C9.81763 29.1089 10.3495 29.1753 11.1502 28.9178C11.951 28.6601 12.9107 28.1085 13.9672 27.2546C16.0746 25.5514 18.3981 22.7829 20.3963 19.3412C22.3944 15.8996 23.6436 12.5143 24.0732 9.84775C24.2886 8.51089 24.2891 7.40856 24.1131 6.59012ZM26.0521 10.1593C25.5746 13.1227 24.2194 16.7394 22.1307 20.337C20.042 23.9347 17.57 26.9102 15.228 28.8031C14.0598 29.7472 12.8813 30.4568 11.7622 30.8168C10.643 31.1768 9.47332 31.2174 8.46769 30.64C7.46207 30.0627 6.91258 29.035 6.66654 27.8912C6.42052 26.7474 6.44918 25.3777 6.68732 23.8995C7.16476 20.9361 8.51998 17.3194 10.6087 13.7218C12.6974 10.1241 15.1694 7.14864 17.5115 5.25574C18.6796 4.31157 19.8581 3.60205 20.9772 3.24201C22.0964 2.88196 23.2661 2.84139 24.2717 3.41876C25.2773 3.99613 25.8268 5.02375 26.0729 6.16762C26.3189 7.31144 26.2902 8.68113 26.0521 10.1593Z" fill="#C165A3"/>
</svg>
